<svg width="480" height="320" viewBox="0 0 480 320" xmlns="http://www.w3.org/2000/svg">
  <defs>
    <linearGradient id="g2" x1="0%" x2="100%" y1="0%" y2="100%">
      <stop offset="0%" stop-color="#14b8a6"/>
      <stop offset="100%" stop-color="#22d3ee"/>
    </linearGradient>
  </defs>
  <rect width="480" height="320" rx="28" fill="#03131d"/>
  <rect x="30" y="30" width="420" height="260" rx="18" fill="#041f2e" stroke="#0f3a52" stroke-width="3"/>
  <rect x="70" y="80" width="340" height="40" rx="8" fill="#072f44"/>
  <rect x="70" y="140" width="220" height="120" rx="18" fill="#041926" stroke="#0f3a52" stroke-width="2"/>
  <rect x="310" y="140" width="100" height="120" rx="18" fill="#041926" stroke="#0f3a52" stroke-width="2"/>
  <circle cx="120" cy="200" r="30" fill="url(#g2)" opacity="0.6"/>
  <circle cx="200" cy="200" r="30" fill="url(#g2)" opacity="0.6"/>
  <path d="M120 200 L200 200" stroke="#d1fae5" stroke-width="6" stroke-linecap="round"/>
  <path d="M360 200 Q360 160 330 160" stroke="#fef3c7" stroke-width="6" stroke-linecap="round" fill="none"/>
  <path d="M360 200 Q360 240 390 240" stroke="#fef3c7" stroke-width="6" stroke-linecap="round" fill="none"/>
  <circle cx="360" cy="200" r="16" fill="url(#g2)"/>
  <rect x="90" y="90" width="40" height="20" rx="4" fill="#0ea5e9"/>
  <rect x="140" y="90" width="40" height="20" rx="4" fill="#22d3ee"/>
  <rect x="190" y="90" width="40" height="20" rx="4" fill="#2dd4bf"/>
</svg>

